<mxfile host="app.diagrams.net" agent="Mozilla/5.0 (Windows NT 10.0; Win64; x64) AppleWebKit/537.36 (KHTML, like Gecko) Chrome/131.0.0.0 Safari/537.36" version="25.0.3">
  <diagram name="Page-1" id="MHe3X8gZDlG4KUUYzPjy">
    <mxGraphModel dx="2350" dy="746" grid="1" gridSize="10" guides="1" tooltips="1" connect="1" arrows="1" fold="1" page="1" pageScale="1" pageWidth="850" pageHeight="1100" math="0" shadow="0">
      <root>
        <mxCell id="0" />
        <mxCell id="1" parent="0" />
        <mxCell id="tEBD6QDTZZYRWLeGDcvk-14" value="" style="rounded=0;whiteSpace=wrap;html=1;" vertex="1" parent="1">
          <mxGeometry x="-400" y="120" width="120" height="80" as="geometry" />
        </mxCell>
        <mxCell id="tEBD6QDTZZYRWLeGDcvk-16" value="" style="rounded=0;whiteSpace=wrap;html=1;" vertex="1" parent="1">
          <mxGeometry x="-400" y="320" width="120" height="80" as="geometry" />
        </mxCell>
        <mxCell id="tEBD6QDTZZYRWLeGDcvk-17" value="" style="rounded=0;whiteSpace=wrap;html=1;" vertex="1" parent="1">
          <mxGeometry x="-400" y="520" width="120" height="80" as="geometry" />
        </mxCell>
        <mxCell id="tEBD6QDTZZYRWLeGDcvk-18" value="Plant leaf image" style="text;html=1;align=center;verticalAlign=middle;whiteSpace=wrap;rounded=0;" vertex="1" parent="1">
          <mxGeometry x="-370" y="145" width="60" height="30" as="geometry" />
        </mxCell>
        <mxCell id="tEBD6QDTZZYRWLeGDcvk-19" value="Soil Data" style="text;html=1;align=center;verticalAlign=middle;whiteSpace=wrap;rounded=0;" vertex="1" parent="1">
          <mxGeometry x="-370" y="345" width="60" height="30" as="geometry" />
        </mxCell>
        <mxCell id="tEBD6QDTZZYRWLeGDcvk-20" value="Weather data" style="text;html=1;align=center;verticalAlign=middle;whiteSpace=wrap;rounded=0;" vertex="1" parent="1">
          <mxGeometry x="-370" y="545" width="60" height="30" as="geometry" />
        </mxCell>
        <mxCell id="tEBD6QDTZZYRWLeGDcvk-21" value="" style="rounded=0;whiteSpace=wrap;html=1;" vertex="1" parent="1">
          <mxGeometry x="-120" y="120" width="320" height="80" as="geometry" />
        </mxCell>
        <mxCell id="tEBD6QDTZZYRWLeGDcvk-22" value="Subnetwork&amp;nbsp;" style="rounded=0;whiteSpace=wrap;html=1;" vertex="1" parent="1">
          <mxGeometry x="-120" y="320" width="320" height="80" as="geometry" />
        </mxCell>
        <mxCell id="tEBD6QDTZZYRWLeGDcvk-23" value="RNN Subnetwork" style="rounded=0;whiteSpace=wrap;html=1;" vertex="1" parent="1">
          <mxGeometry x="-120" y="520" width="320" height="80" as="geometry" />
        </mxCell>
        <mxCell id="tEBD6QDTZZYRWLeGDcvk-24" value="CNN Subnetwork&amp;nbsp;" style="text;html=1;align=center;verticalAlign=middle;whiteSpace=wrap;rounded=0;" vertex="1" parent="1">
          <mxGeometry x="-75" y="145" width="230" height="30" as="geometry" />
        </mxCell>
        <mxCell id="tEBD6QDTZZYRWLeGDcvk-25" value="" style="endArrow=classic;html=1;rounded=0;exitX=1;exitY=0.5;exitDx=0;exitDy=0;entryX=0;entryY=0.5;entryDx=0;entryDy=0;" edge="1" parent="1" source="tEBD6QDTZZYRWLeGDcvk-16" target="tEBD6QDTZZYRWLeGDcvk-22">
          <mxGeometry width="50" height="50" relative="1" as="geometry">
            <mxPoint y="450" as="sourcePoint" />
            <mxPoint x="50" y="400" as="targetPoint" />
          </mxGeometry>
        </mxCell>
        <mxCell id="tEBD6QDTZZYRWLeGDcvk-26" value="" style="endArrow=classic;html=1;rounded=0;exitX=1;exitY=0.5;exitDx=0;exitDy=0;entryX=0;entryY=0.5;entryDx=0;entryDy=0;" edge="1" parent="1" source="tEBD6QDTZZYRWLeGDcvk-17" target="tEBD6QDTZZYRWLeGDcvk-23">
          <mxGeometry width="50" height="50" relative="1" as="geometry">
            <mxPoint x="-270" y="370" as="sourcePoint" />
            <mxPoint x="-110" y="370" as="targetPoint" />
          </mxGeometry>
        </mxCell>
        <mxCell id="tEBD6QDTZZYRWLeGDcvk-27" value="" style="endArrow=classic;html=1;rounded=0;exitX=1;exitY=0.5;exitDx=0;exitDy=0;entryX=0;entryY=0.5;entryDx=0;entryDy=0;" edge="1" parent="1" source="tEBD6QDTZZYRWLeGDcvk-14" target="tEBD6QDTZZYRWLeGDcvk-21">
          <mxGeometry width="50" height="50" relative="1" as="geometry">
            <mxPoint x="-260" y="380" as="sourcePoint" />
            <mxPoint x="-100" y="380" as="targetPoint" />
          </mxGeometry>
        </mxCell>
        <mxCell id="tEBD6QDTZZYRWLeGDcvk-28" value="Fusion model" style="rounded=0;whiteSpace=wrap;html=1;" vertex="1" parent="1">
          <mxGeometry x="280" y="120" width="200" height="480" as="geometry" />
        </mxCell>
        <mxCell id="tEBD6QDTZZYRWLeGDcvk-29" value="" style="endArrow=classic;html=1;rounded=0;exitX=1;exitY=0.5;exitDx=0;exitDy=0;entryX=-0.001;entryY=0.915;entryDx=0;entryDy=0;entryPerimeter=0;" edge="1" parent="1" source="tEBD6QDTZZYRWLeGDcvk-23" target="tEBD6QDTZZYRWLeGDcvk-28">
          <mxGeometry width="50" height="50" relative="1" as="geometry">
            <mxPoint y="450" as="sourcePoint" />
            <mxPoint x="50" y="400" as="targetPoint" />
          </mxGeometry>
        </mxCell>
        <mxCell id="tEBD6QDTZZYRWLeGDcvk-30" value="" style="endArrow=classic;html=1;rounded=0;exitX=1;exitY=0.5;exitDx=0;exitDy=0;entryX=0;entryY=0.5;entryDx=0;entryDy=0;" edge="1" parent="1" source="tEBD6QDTZZYRWLeGDcvk-22" target="tEBD6QDTZZYRWLeGDcvk-28">
          <mxGeometry width="50" height="50" relative="1" as="geometry">
            <mxPoint x="-250" y="390" as="sourcePoint" />
            <mxPoint x="-90" y="390" as="targetPoint" />
          </mxGeometry>
        </mxCell>
        <mxCell id="tEBD6QDTZZYRWLeGDcvk-31" value="" style="endArrow=classic;html=1;rounded=0;exitX=1;exitY=0.5;exitDx=0;exitDy=0;entryX=-0.013;entryY=0.082;entryDx=0;entryDy=0;entryPerimeter=0;" edge="1" parent="1" source="tEBD6QDTZZYRWLeGDcvk-21" target="tEBD6QDTZZYRWLeGDcvk-28">
          <mxGeometry width="50" height="50" relative="1" as="geometry">
            <mxPoint x="-240" y="400" as="sourcePoint" />
            <mxPoint x="-80" y="400" as="targetPoint" />
          </mxGeometry>
        </mxCell>
        <mxCell id="tEBD6QDTZZYRWLeGDcvk-32" value="" style="endArrow=classic;html=1;rounded=0;exitX=1;exitY=0.5;exitDx=0;exitDy=0;entryX=0;entryY=0.5;entryDx=0;entryDy=0;" edge="1" parent="1" source="tEBD6QDTZZYRWLeGDcvk-28" target="tEBD6QDTZZYRWLeGDcvk-33">
          <mxGeometry width="50" height="50" relative="1" as="geometry">
            <mxPoint x="-230" y="410" as="sourcePoint" />
            <mxPoint x="-70" y="410" as="targetPoint" />
          </mxGeometry>
        </mxCell>
        <mxCell id="tEBD6QDTZZYRWLeGDcvk-33" value="Output" style="whiteSpace=wrap;html=1;aspect=fixed;" vertex="1" parent="1">
          <mxGeometry x="570" y="320" width="80" height="80" as="geometry" />
        </mxCell>
      </root>
    </mxGraphModel>
  </diagram>
</mxfile>
